<svg preserveAspectRatio="none" overflow="visible" style="display: block;" width="41.7816" height="35.5204" viewBox="0 0 41.7816 35.5204" fill="none" xmlns="http://www.w3.org/2000/svg">
<path id="Ellipse 904" d="M41.6846 33.3152C41.8139 33.1858 41.8139 32.9761 41.6846 32.8467L39.5764 30.7385C39.447 30.6092 39.2373 30.6092 39.1079 30.7385C38.9785 30.8679 38.9785 31.0777 39.1079 31.207L40.9818 33.081L39.1079 34.9549C38.9785 35.0843 38.9785 35.294 39.1079 35.4234C39.2373 35.5527 39.447 35.5527 39.5764 35.4234L41.6846 33.3152ZM0.662535 0.331268V0H0V0.331268H0.331268H0.662535ZM0.331268 0.331268H0C0 0.819688 0.0132595 1.30566 0.0395097 1.78898L0.37029 1.77101L0.70107 1.75305C0.675469 1.28169 0.662535 0.807693 0.662535 0.331268H0.331268ZM0.470611 3.04686L0.141088 3.08082C0.241194 4.05216 0.393858 5.0116 0.596793 5.95731L0.920688 5.88781L1.24458 5.81831C1.04664 4.89585 0.897755 3.96014 0.800133 3.0129L0.470611 3.04686ZM1.21884 7.13139L0.898641 7.21629C1.14766 8.15552 1.44656 9.0799 1.79298 9.9876L2.10248 9.86949L2.41197 9.75137C2.07372 8.86507 1.78201 7.96285 1.53905 7.04649L1.21884 7.13139ZM2.58567 11.0536L2.28189 11.1857C2.66758 12.0726 3.09914 12.9422 3.57425 13.7927L3.86345 13.6311L4.15265 13.4696C3.68801 12.6379 3.26623 11.7879 2.88946 10.9215L2.58567 11.0536ZM4.51129 14.7348L4.22922 14.9085C4.73471 15.7293 5.28145 16.5307 5.86724 17.3111L6.13217 17.1123L6.39711 16.9134C5.82324 16.1489 5.28797 15.3642 4.79335 14.5611L4.51129 14.7348ZM6.91956 18.1194L6.66261 18.3284C7.26964 19.0744 7.91319 19.7995 8.5912 20.502L8.82957 20.2719L9.06793 20.0419C8.40262 19.3525 7.77149 18.6414 7.1765 17.9103L6.91956 18.1194ZM9.73562 21.1774L9.50572 21.4158C10.1966 22.0818 10.9194 22.7257 11.6722 23.346L11.8829 23.0903L12.0935 22.8347C11.3537 22.2251 10.6438 21.5926 9.96553 20.9389L9.73562 21.1774ZM12.8836 23.8871L12.6816 24.1497C13.4424 24.7351 14.2311 25.2974 15.0459 25.8353L15.2284 25.5588L15.4109 25.2823C14.6092 24.7532 13.8336 24.2001 13.0856 23.6246L12.8836 23.8871ZM16.3054 26.2458L16.1315 26.5278C16.948 27.0311 17.7885 27.5106 18.6516 27.9649L18.8059 27.6718L18.9602 27.3786C18.1103 26.9312 17.2827 26.4592 16.4792 25.9639L16.3054 26.2458ZM19.9471 28.2513L19.8015 28.5489C20.662 28.9702 21.5433 29.3671 22.4437 29.7385L22.57 29.4322L22.6963 29.126C21.8089 28.76 20.9405 28.3689 20.0928 27.9538L19.9471 28.2513ZM23.7611 29.904L23.6434 30.2137C24.5388 30.554 25.4518 30.8695 26.3812 31.159L26.4797 30.8427L26.5782 30.5264C25.6617 30.2409 24.7614 29.9299 23.8788 29.5944L23.7611 29.904ZM27.7069 31.207L27.6169 31.5258C28.5391 31.7862 29.4762 32.0213 30.4269 32.23L30.498 31.9064L30.569 31.5829C29.6309 31.3769 28.7065 31.145 27.7969 30.8882L27.7069 31.207ZM31.7511 32.1646L31.6885 32.4899C32.6295 32.6711 33.583 32.8267 34.5478 32.9558L34.5917 32.6274L34.6356 32.2991C33.6833 32.1717 32.7423 32.0181 31.8137 31.8393L31.7511 32.1646ZM35.8615 32.781L35.8258 33.1103C36.7785 33.2134 37.7413 33.2907 38.7133 33.3413L38.7305 33.0105L38.7477 32.6796C37.7881 32.6297 36.8375 32.5534 35.8971 32.4516L35.8615 32.781ZM40.0086 33.0612L39.9995 33.3923C40.4811 33.4056 40.9647 33.4122 41.4503 33.4122V33.081V32.7497C40.9708 32.7497 40.4932 32.7431 40.0177 32.7301L40.0086 33.0612Z" fill="black"/>
</svg>
